<svg width="12" height="12" viewBox="0 0 12 12" fill="none" xmlns="http://www.w3.org/2000/svg">
<path d="M10.609 11.5038L6.58271 7.47745C6.26316 7.73309 5.89568 7.93547 5.48027 8.08459C5.06485 8.23372 4.62281 8.30828 4.15414 8.30828C2.99311 8.30828 2.0105 7.90618 1.2063 7.10198C0.402099 6.29778 0 5.31517 0 4.15414C0 2.99311 0.402099 2.0105 1.2063 1.2063C2.0105 0.402099 2.99311 0 4.15414 0C5.31517 0 6.29778 0.402099 7.10198 1.2063C7.90618 2.0105 8.30828 2.99311 8.30828 4.15414C8.30828 4.62281 8.23372 5.06485 8.08459 5.48027C7.93547 5.89568 7.73309 6.26316 7.47745 6.58271L11.5038 10.609L10.609 11.5038ZM4.15414 7.03008C4.95301 7.03008 5.63205 6.75048 6.19126 6.19126C6.75048 5.63205 7.03008 4.95301 7.03008 4.15414C7.03008 3.35527 6.75048 2.67622 6.19126 2.11701C5.63205 1.5578 4.95301 1.2782 4.15414 1.2782C3.35527 1.2782 2.67622 1.5578 2.11701 2.11701C1.5578 2.67622 1.2782 3.35527 1.2782 4.15414C1.2782 4.95301 1.5578 5.63205 2.11701 6.19126C2.67622 6.75048 3.35527 7.03008 4.15414 7.03008Z" fill="#182345"/>
</svg>
