<svg width="273" height="38" viewBox="0 0 273 38" fill="none" xmlns="http://www.w3.org/2000/svg">
<path d="M27.06 37.84L11.165 19.47V37.84H0V0H10.615L26.51 18.645V0H37.675V37.84H27.06ZM67.8833 37.84L66.2883 32.505H53.0333L51.4383 37.84H39.0083L52.8133 0H66.9483L80.7533 37.84H67.8833ZM55.5633 24.035H63.7583L59.7983 10.56H59.5783L55.5633 24.035ZM89.8631 37.84L76.4431 0H89.4231L97.0131 25.3H97.2331L104.878 0H117.308L103.943 37.84H89.8631ZM143.12 37.84H130.965V23.155L115.95 0H129.92L137.18 12.595H137.4L144.66 0H157.915L143.12 23.155V37.84ZM184.883 0C186.79 0 188.531 0.403333 190.108 1.21C191.721 1.98 192.986 3.08 193.903 4.51C194.856 5.94 195.333 7.535 195.333 9.29499C195.333 13.9517 193.225 16.885 189.008 18.095V18.315C193.811 19.415 196.213 22.5683 196.213 27.775C196.213 29.755 195.718 31.515 194.728 33.055C193.775 34.5583 192.455 35.7317 190.768 36.575C189.081 37.4183 187.23 37.84 185.213 37.84H159.693V0H184.883ZM171.848 14.74H180.208C181.015 14.74 181.675 14.465 182.188 13.915C182.738 13.3283 183.013 12.6133 183.013 11.77V11.22C183.013 10.4133 182.738 9.735 182.188 9.185C181.638 8.59833 180.978 8.305 180.208 8.305H171.848V14.74ZM171.848 29.04H181.088C181.895 29.04 182.555 28.765 183.068 28.215C183.618 27.6283 183.893 26.9133 183.893 26.07V25.52C183.893 24.6767 183.618 23.98 183.068 23.43C182.555 22.8433 181.895 22.55 181.088 22.55H171.848V29.04ZM224.193 37.84L222.598 32.505H209.343L207.748 37.84H195.318L209.123 0H223.258L237.063 37.84H224.193ZM211.873 24.035H220.068L216.108 10.56H215.888L211.873 24.035ZM257.707 37.84H245.552V23.155L230.537 0H244.507L251.767 12.595H251.987L259.247 0H272.502L257.707 23.155V37.84Z" fill="white"/>
</svg>
