<svg width="273" height="38" viewBox="0 0 273 38" fill="none" xmlns="http://www.w3.org/2000/svg">
<path d="M27.0597 37.8401L11.1647 19.4701V37.8401H-0.000312448V8.66055e-05H10.6147L26.5097 18.6451V8.66055e-05H37.6747V37.8401H27.0597ZM67.883 37.8401L66.288 32.5051H53.033L51.438 37.8401H39.008L52.813 8.66055e-05H66.948L80.753 37.8401H67.883ZM55.563 24.0351H63.758L59.798 10.5601H59.578L55.563 24.0351ZM89.8628 37.8401L76.4428 8.66055e-05H89.4228L97.0128 25.3001H97.2328L104.878 8.66055e-05H117.308L103.943 37.8401H89.8628ZM143.12 37.8401H130.965V23.1551L115.95 8.66055e-05H129.92L137.18 12.5951H137.4L144.66 8.66055e-05H157.915L143.12 23.1551V37.8401ZM184.883 8.66055e-05C186.79 8.66055e-05 188.531 0.40342 190.108 1.21009C191.721 1.98009 192.986 3.08009 193.903 4.51009C194.856 5.94009 195.333 7.53509 195.333 9.29508C195.333 13.9518 193.225 16.8851 189.008 18.0951V18.3151C193.811 19.4151 196.213 22.5684 196.213 27.7751C196.213 29.7551 195.718 31.5151 194.728 33.0551C193.775 34.5584 192.455 35.7318 190.768 36.5751C189.081 37.4184 187.23 37.8401 185.213 37.8401H159.693V8.66055e-05H184.883ZM171.848 14.7401H180.208C181.015 14.7401 181.675 14.4651 182.188 13.9151C182.738 13.3284 183.013 12.6134 183.013 11.7701V11.2201C183.013 10.4134 182.738 9.73509 182.188 9.18509C181.638 8.59842 180.978 8.30509 180.208 8.30509H171.848V14.7401ZM171.848 29.0401H181.088C181.895 29.0401 182.555 28.7651 183.068 28.2151C183.618 27.6284 183.893 26.9134 183.893 26.0701V25.5201C183.893 24.6768 183.618 23.9801 183.068 23.4301C182.555 22.8434 181.895 22.5501 181.088 22.5501H171.848V29.0401ZM224.193 37.8401L222.598 32.5051H209.343L207.748 37.8401H195.318L209.123 8.66055e-05H223.258L237.063 37.8401H224.193ZM211.873 24.0351H220.068L216.108 10.5601H215.888L211.873 24.0351ZM257.707 37.8401H245.552V23.1551L230.537 8.66055e-05H244.507L251.767 12.5951H251.987L259.247 8.66055e-05H272.502L257.707 23.1551V37.8401Z" fill="#002755"/>
</svg>
